<svg id="Layer_1" data-name="Layer 1" xmlns="http://www.w3.org/2000/svg" viewBox="0 0 1609.47 1043"><defs><style>.cls-1{fill:#c79a73;}.cls-2{fill:#eee0d7;}.cls-10,.cls-11,.cls-12,.cls-13,.cls-14,.cls-15,.cls-16,.cls-17,.cls-18,.cls-19,.cls-20,.cls-21,.cls-22,.cls-23,.cls-24,.cls-25,.cls-26,.cls-27,.cls-28,.cls-29,.cls-3,.cls-30,.cls-31,.cls-32,.cls-33,.cls-34,.cls-35,.cls-36,.cls-37,.cls-38,.cls-39,.cls-4,.cls-40,.cls-5,.cls-6,.cls-7,.cls-8,.cls-9{isolation:isolate;}.cls-24,.cls-25,.cls-26,.cls-27,.cls-4,.cls-5,.cls-6,.cls-7{font-size:312.1px;}.cls-10,.cls-12,.cls-14,.cls-16,.cls-18,.cls-20,.cls-22,.cls-4,.cls-6,.cls-8{fill:#a7a9ac;}.cls-10,.cls-11,.cls-12,.cls-13,.cls-14,.cls-15,.cls-16,.cls-17,.cls-18,.cls-19,.cls-20,.cls-21,.cls-22,.cls-23,.cls-24,.cls-25,.cls-26,.cls-27,.cls-28,.cls-29,.cls-30,.cls-31,.cls-32,.cls-33,.cls-34,.cls-35,.cls-36,.cls-37,.cls-38,.cls-39,.cls-4,.cls-40,.cls-5,.cls-6,.cls-7,.cls-8,.cls-9{font-family:RichelaKids, Richela Kids;}.cls-24,.cls-25,.cls-4,.cls-5{letter-spacing:-0.02em;}.cls-11,.cls-13,.cls-15,.cls-17,.cls-19,.cls-21,.cls-23,.cls-25,.cls-27,.cls-33,.cls-35,.cls-37,.cls-40,.cls-5,.cls-7,.cls-9{fill:none;stroke-miterlimit:10;}.cls-11,.cls-13,.cls-15,.cls-17,.cls-19,.cls-21,.cls-23,.cls-5,.cls-7,.cls-9{stroke:#a7a9ac;}.cls-25,.cls-27,.cls-5,.cls-7{stroke-width:5px;}.cls-10,.cls-11,.cls-12,.cls-13,.cls-14,.cls-15,.cls-28,.cls-29,.cls-30,.cls-31,.cls-8,.cls-9{font-size:309.59px;}.cls-28,.cls-8,.cls-9{letter-spacing:-0.01em;}.cls-10,.cls-11,.cls-29{letter-spacing:0.01em;}.cls-14,.cls-15,.cls-31{letter-spacing:0.02em;}.cls-16,.cls-17,.cls-18,.cls-19,.cls-20,.cls-21,.cls-22,.cls-23{font-size:486.48px;}.cls-16,.cls-17{letter-spacing:-0.05em;}.cls-18,.cls-19{letter-spacing:-0.01em;}.cls-20,.cls-21{letter-spacing:-0.04em;}.cls-24,.cls-26,.cls-28,.cls-29,.cls-30,.cls-31{fill:#231f20;}.cls-25,.cls-27,.cls-33,.cls-35,.cls-37,.cls-40{stroke:#231f20;}.cls-32,.cls-33,.cls-34,.cls-35,.cls-36,.cls-37,.cls-38,.cls-39,.cls-40{font-size:513.04px;}.cls-32{fill:#ed1c24;}.cls-32,.cls-33{letter-spacing:-0.05em;}.cls-33,.cls-35,.cls-37,.cls-40{stroke-width:8px;}.cls-34{fill:#ffde17;}.cls-34,.cls-35,.cls-38{letter-spacing:-0.01em;}.cls-36{fill:#00a651;}.cls-36,.cls-37{letter-spacing:-0.04em;}.cls-38{fill:#00aeef;}.cls-39{fill:#2e3192;}.cls-41{fill:#faf6fa;}</style></defs><title>logo_v3</title><ellipse class="cls-1" cx="877.24" cy="564.82" rx="715.38" ry="361.08"/><ellipse class="cls-2" cx="832.16" cy="529.96" rx="727.36" ry="363.65"/><g class="cls-3"><text class="cls-4" transform="matrix(0.76, 0.06, -0.07, 1, 189.03, 709.88)">M</text><text class="cls-5" transform="matrix(0.76, 0.06, -0.07, 1, 189.03, 709.88)">M</text><text class="cls-6" transform="matrix(0.76, 0.06, -0.07, 1, 380.23, 723.79)">y</text><text class="cls-7" transform="matrix(0.76, 0.06, -0.07, 1, 380.23, 723.79)">y</text></g><g class="cls-3"><text class="cls-8" transform="matrix(0.87, -0.17, 0.19, 0.98, 619.12, 862.84)">P</text><text class="cls-9" transform="matrix(0.87, -0.17, 0.19, 0.98, 619.12, 862.84)">P</text><text class="cls-10" transform="matrix(0.87, -0.17, 0.19, 0.98, 756.87, 836.04)">e</text><text class="cls-11" transform="matrix(0.87, -0.17, 0.19, 0.98, 756.87, 836.04)">e</text><text class="cls-12" transform="matrix(0.87, -0.17, 0.19, 0.98, 900.67, 808.06)">n</text><text class="cls-13" transform="matrix(0.87, -0.17, 0.19, 0.98, 900.67, 808.06)">n</text><text class="cls-12" transform="matrix(0.87, -0.17, 0.19, 0.98, 1059.43, 777.17)">c</text><text class="cls-13" transform="matrix(0.87, -0.17, 0.19, 0.98, 1059.43, 777.17)">c</text><text class="cls-12" transform="matrix(0.87, -0.17, 0.19, 0.98, 1190.22, 751.73)">i</text><text class="cls-13" transform="matrix(0.87, -0.17, 0.19, 0.98, 1190.22, 751.73)">i</text><text class="cls-14" transform="matrix(0.87, -0.17, 0.19, 0.98, 1261.78, 737.8)">l</text><text class="cls-15" transform="matrix(0.87, -0.17, 0.19, 0.98, 1261.78, 737.8)">l</text><text class="cls-12" transform="matrix(0.87, -0.17, 0.19, 0.98, 1358.44, 719)">s</text><text class="cls-13" transform="matrix(0.87, -0.17, 0.19, 0.98, 1358.44, 719)">s</text></g><g class="cls-3"><text class="cls-16" transform="matrix(0.91, -0.09, 0.1, 1, 467.85, 577.76)">C</text><text class="cls-17" transform="matrix(0.91, -0.09, 0.1, 1, 467.85, 577.76)">C</text><text class="cls-18" transform="matrix(0.91, -0.09, 0.1, 1, 703.39, 554.66)">o</text><text class="cls-19" transform="matrix(0.91, -0.09, 0.1, 1, 703.39, 554.66)">o</text><text class="cls-20" transform="matrix(0.91, -0.09, 0.1, 1, 930.3, 532.42)">l</text><text class="cls-21" transform="matrix(0.91, -0.09, 0.1, 1, 930.3, 532.42)">l</text><text class="cls-18" transform="matrix(0.91, -0.09, 0.1, 1, 1060.55, 519.65)">o</text><text class="cls-19" transform="matrix(0.91, -0.09, 0.1, 1, 1060.55, 519.65)">o</text><text class="cls-22" transform="matrix(0.91, -0.09, 0.1, 1, 1288.13, 497.34)">r</text><text class="cls-23" transform="matrix(0.91, -0.09, 0.1, 1, 1288.13, 497.34)">r</text></g><g class="cls-3"><text class="cls-24" transform="matrix(0.76, 0.06, -0.07, 1, 163.56, 690.52)">M</text><text class="cls-25" transform="matrix(0.76, 0.06, -0.07, 1, 163.56, 690.52)">M</text><text class="cls-26" transform="matrix(0.76, 0.06, -0.07, 1, 354.76, 704.43)">y</text><text class="cls-27" transform="matrix(0.76, 0.06, -0.07, 1, 354.76, 704.43)">y</text></g><g class="cls-3"><text class="cls-28" transform="matrix(0.87, -0.17, 0.19, 0.98, 599.25, 843.4)">P</text><text class="cls-29" transform="matrix(0.87, -0.17, 0.19, 0.98, 737, 816.6)">e</text><text class="cls-30" transform="matrix(0.87, -0.17, 0.19, 0.98, 880.8, 788.62)">n</text><text class="cls-30" transform="matrix(0.87, -0.17, 0.19, 0.98, 1039.56, 757.73)">c</text><text class="cls-30" transform="matrix(0.87, -0.17, 0.19, 0.98, 1170.34, 732.29)">i</text><text class="cls-31" transform="matrix(0.87, -0.17, 0.19, 0.98, 1241.91, 718.36)">l</text><text class="cls-30" transform="matrix(0.87, -0.17, 0.19, 0.98, 1338.57, 699.56)">s</text></g><g class="cls-3"><text class="cls-32" transform="matrix(0.91, -0.09, 0.1, 1, 399.67, 561.08)">C</text><text class="cls-33" transform="matrix(0.91, -0.09, 0.1, 1, 399.67, 561.08)">C</text><text class="cls-34" transform="matrix(0.91, -0.09, 0.1, 1, 648.05, 536.73)">o</text><text class="cls-35" transform="matrix(0.91, -0.09, 0.1, 1, 648.05, 536.73)">o</text><text class="cls-36" transform="matrix(0.91, -0.09, 0.1, 1, 887.36, 513.27)">l</text><text class="cls-37" transform="matrix(0.91, -0.09, 0.1, 1, 887.36, 513.27)">l</text><text class="cls-38" transform="matrix(0.91, -0.09, 0.1, 1, 1024.73, 499.8)">o</text><text class="cls-35" transform="matrix(0.91, -0.09, 0.1, 1, 1024.73, 499.8)">o</text><text class="cls-39" transform="matrix(0.91, -0.09, 0.1, 1, 1264.71, 476.27)">r</text><text class="cls-40" transform="matrix(0.91, -0.09, 0.1, 1, 1264.71, 476.27)">r</text></g><polygon class="cls-41" points="221.42 276.83 200.04 207.03 156.43 245.26 221.42 276.83"/><polygon class="cls-41" points="374.88 879.27 300.66 917.72 353.3 960.4 374.88 879.27"/><polygon class="cls-41" points="1522.43 320.61 1599.5 304.36 1563.09 252.23 1522.43 320.61"/><polygon class="cls-41" points="1524.07 784.01 1568.86 860.04 1609.47 802.39 1524.07 784.01"/><polygon class="cls-41" points="76.68 549.96 7.94 525.37 12.53 583.18 76.68 549.96"/><polygon class="cls-41" points="1017.53 954.88 1022.22 1042.99 1084.83 1010.56 1017.53 954.88"/><polygon class="cls-41" points="881.06 122.64 926.83 75.75 877.61 57.88 881.06 122.64"/><polygon class="cls-1" points="213.47 266.02 192.1 196.21 148.49 234.46 213.47 266.02"/><polygon class="cls-1" points="366.94 868.47 292.72 906.9 345.35 949.58 366.94 868.47"/><polygon class="cls-1" points="1514.49 309.81 1591.54 293.55 1555.15 241.43 1514.49 309.81"/><polygon class="cls-1" points="1516.13 773.2 1560.91 849.23 1601.52 791.59 1516.13 773.2"/><polygon class="cls-1" points="68.74 539.15 0 514.57 4.59 572.38 68.74 539.15"/><polygon class="cls-1" points="1009.58 944.06 1014.28 1032.18 1076.88 999.76 1009.58 944.06"/><polygon class="cls-1" points="873.11 111.84 918.89 64.94 869.67 47.06 873.11 111.84"/></svg>