<svg id="Layer_1" data-name="Layer 1" xmlns="http://www.w3.org/2000/svg" viewBox="0 0 957.68 391.39"><defs><style>.cls-1{fill:#0a0a0a;}.cls-2{fill:#fcc415;}.cls-3{fill:#3b469c;}.cls-4{fill:#e02327;}.cls-5{fill:#939292;}.cls-6{fill:#b35828;}.cls-7{fill:#868686;}.cls-8{fill:#e2e2e1;}.cls-9{fill:#39b24b;}.cls-10{fill:#b4b4b4;}.cls-11{fill:#5c5c5c;}.cls-12{fill:#252525;}.cls-13{fill:#464550;}.cls-14{fill:#a7a7a7;}.cls-15{fill:#989797;}</style></defs><title>logo_v1</title><path class="cls-1" d="M434.56,456.05c.16-2.42.31-4.83.46-7.25,2.11-6.75,1.62-13.76,2-20.69.06-.65.13-1.3.19-1.95a10.12,10.12,0,0,0,.54-6.77c.17-1,.33-1.95.49-2.93,1.52-2.09,1.35-4.38.83-6.71.11-1,.22-2,.32-3a5.72,5.72,0,0,0,.79-5.62c.11-1.36.23-2.72.34-4.08a5.12,5.12,0,0,0,.78-4.53c.09-.64.17-1.29.26-1.94a8.5,8.5,0,0,0,.35-6.49c.2-2.15.41-4.3.61-6.45,1.65-2.82,1.45-5.82.88-8.85.11-1,.22-2,.34-3a3.1,3.1,0,0,0,.72-3.47l.36-3a1.91,1.91,0,0,0,.36-2.46l.69-2.93a49.49,49.49,0,0,0,4-12.09c.61-1.25,1.23-2.51,1.84-3.77a2.34,2.34,0,0,0,1.69-2.54c.48-.62,1-1.24,1.45-1.85a10.71,10.71,0,0,0,4.39-4.1l1.61-.89a2,2,0,0,0,2.34-.82l1.91-.53,11.26.24c3.26,1.3,6.3,2.95,8.49,5.82a2.34,2.34,0,0,0,1.69,2.52,2.24,2.24,0,0,0,.45.72c3.36,6.24,4,12.95,3,19.79-1.36,9.4-3.08,18.74-4.55,28.12-2.21,14.18-5.55,28.14-8.17,42.24-2.32,12.51-3.65,25.18-5.65,37.73-2.51,15.75-5.93,31.35-9.06,47S454.46,542,449.81,557c-4.3,13.92-10.83,26.47-23,35.48-11.28,8.38-23.5,11.74-37.44,8.93-6.44-1.3-12-4.56-17.89-7a2.16,2.16,0,0,0-.68-.42.9.9,0,0,0-1.27-.83h0a.89.89,0,0,0-1.25-.84,2.42,2.42,0,0,0-.71-.42.94.94,0,0,0-1.29-.84h0a.9.9,0,0,0-1.2-.91,2.91,2.91,0,0,0-.69-.47.93.93,0,0,0-1.2-.94l-8.72-8.46a2.21,2.21,0,0,0-2-2.38l-1.38-1.83a1,1,0,0,0-.92-1.25l-2.34-4.11a4.7,4.7,0,0,0-.12-1.56c-3.94-9.25-3.28-18.45.14-27.65a34.3,34.3,0,0,1,5.41-5.43,32.59,32.59,0,0,0,7.55-3.38l1.94-.36,7.84,1.54,2.84,1.63a2.34,2.34,0,0,0,2.5,1.69l7.22,6.88c1.33,3.59,4.09,6.09,6.92,8.4,3.32,2.71,6.32,2.63,9.94.32a2.6,2.6,0,0,0,.73-.49,2.1,2.1,0,0,0,2.39-1.87l3.27-3.26a2.05,2.05,0,0,0,1.79-2.47,2.28,2.28,0,0,0,.44-.71c3.89-4.11,4.55-9.24,4.63-14.55l.27-1.92c1.27-1.56.67-3.42.82-5.16a2.36,2.36,0,0,0-2-2.76c-6.26-1.06-11.5-4.54-17.14-7.1a2,2,0,0,0-.63-.43,3.15,3.15,0,0,0-3.14-2.12l-.17-.12a5.34,5.34,0,0,0-4-3.15l-.24-.18a17.41,17.41,0,0,0-6.52-6.23L378,497.41a4.34,4.34,0,0,0-2.85-3.64,1.73,1.73,0,0,0-.42-.65,10.37,10.37,0,0,0-3.91-5.8,2,2,0,0,0-.38-.69,11.86,11.86,0,0,0-3.86-6.9,2.86,2.86,0,0,0-.38-.71,1,1,0,0,0-.77-1.37,2.67,2.67,0,0,0-.36-.74c.3-1.18-.45-2.06-.92-3a158,158,0,0,1-16-51.91c-.38-2.93.36-6.11-1.49-8.81l-.36-3c.43-4.08,1-8.18-.74-12.13-.44-9-.17-18,0-26.95a53.6,53.6,0,0,0,1.77-16.44c.13-.63.27-1.26.4-1.89a2.72,2.72,0,0,0,.76-3.47c.12-.64.25-1.28.37-1.92a19.6,19.6,0,0,0,2.92-8.84l2.94-5.92a2.28,2.28,0,0,0,1.61-2.58,2.51,2.51,0,0,0,.45-.71,2.41,2.41,0,0,0,1.91-2.37,28.58,28.58,0,0,1,5.2-4.62,15,15,0,0,0,5.5-1.89,14.71,14.71,0,0,1,6.07.68,14.84,14.84,0,0,0,5.94,2.29l2.83,1.65A2.22,2.22,0,0,0,386.7,327a24.4,24.4,0,0,1,5.45,5.38c2.77,6.65,4.86,13.56,5.22,20.7.56,11.09.9,22.23.44,33.31a235.78,235.78,0,0,0,2,43.4c2.28,15.89,6.41,31.18,14,45.45,3,5.73,7.81,9.74,12.72,13.64,1.39,1.11,3,1.52,3.53-1a2.68,2.68,0,0,0,.45-.83c3.61-5.52,3.34-11.74,3.28-17.92l.21-1.93A24.71,24.71,0,0,0,434.56,456.05Z" transform="translate(-115.03 -250.23)"/><path class="cls-2" d="M571.15,409.43c8.48,6.85,25.84.57,30.8-9,2.14-4.14,4.14-8.36,6-12.61a23.41,23.41,0,0,1,6.06-8.77c8.12-6.79,18.48-5,23.85,4.12.45.78.9,1.55,1.34,2.33,1.16,6.22.8,12.42,0,18.67-2.41,19.32-11.53,34.15-28.88,43.4-14.9,7.94-30.63,8-46.61,4-5.72-1.43-11.33-3.3-17-5-20.28-12.16-31-31-37.28-53-2.58-9-3.09-18.32-4.39-27.5-.95-5.67-.52-11.4-.64-17.11,1.46-11.17,2.39-22.41,5.1-33.42s6.79-21,13.53-30.14,13.94-17.31,22.7-24.26A50.83,50.83,0,0,1,575,250.34c16.37-.94,31,4,44.34,13.41,3.69,2.62,6.68,5.94,9.77,9.18a8.93,8.93,0,0,0,.79,2c5.44,7.6,5.81,15.72,2.87,24.36-3.22,9.43-8,13.31-17.73,14-4.79-1-8.09-4.16-10.76-8a21,21,0,0,0-6.77-6.5c-.79-2.35-2.76-3.74-4.41-5.35-5.95-5.76-12.2-6.55-19-2a47.47,47.47,0,0,0-15.61,16.79c-6.39,11.68-8.24,24.39-8.76,37.38A160.13,160.13,0,0,0,552,376.65c1.17,7.45,2.65,14.89,6.81,21.41C561.93,402.92,565.07,407.77,571.15,409.43Z" transform="translate(-115.03 -250.23)"/><path class="cls-3" d="M858.1,451.06a34.61,34.61,0,0,0-2.9-2.41c-13-8.68-19.25-21.47-21.92-36.31-4.88-27.09-2.8-53.29,10.38-78,4.28-8.05,9.6-15.16,17.52-20a10.2,10.2,0,0,0,2.2-1.54c6.19-6.64,14.2-7.6,22.69-7.78a63,63,0,0,1,27.74,5.48A53.22,53.22,0,0,1,935,328.26c1.55,3.42,3.39,6.74,4.58,10.27,3.5,10.41,5.83,21.05,5.89,32.13A145.76,145.76,0,0,1,943,399.55c-2.67,13.69-6.62,26.89-15.71,37.85-7.41,8.92-15.7,16.63-27.6,19.46-4.21,1-8.42,1.63-12.65,2.34A29.74,29.74,0,0,1,869.73,457l-8.79-3.85a2.17,2.17,0,0,0-.56-.39,1,1,0,0,0-1.15-.9l-.16-.13A.73.73,0,0,0,858.1,451.06Zm41.67-101.31a22.5,22.5,0,0,0-8.76-8.34c-4.57-2.67-10.66-1.91-13.35,1.4a50.06,50.06,0,0,0-10.29,19.92c-4.28,17.72-.12,34.51,6,50.95a13.69,13.69,0,0,0,9,8.67c2.79,3.07,6,2.75,9.3,1.06a19.7,19.7,0,0,0,8.85-8.33c5.33-9.82,7.85-20.37,8.58-31.42.62-9.45-.34-18.64-4.1-27.43C903.9,353.55,902.49,351.13,899.77,349.75Z" transform="translate(-115.03 -250.23)"/><path class="cls-4" d="M683.41,448.21c-11.79-7.56-18.68-18.81-22.9-31.7-7.07-21.56-7.94-43.35-.69-65.11a76.56,76.56,0,0,1,26.07-36.85c8.29-6.47,17.67-7.32,27.55-4.38,15.75,4.69,28.48,14.14,40,25.47a.83.83,0,0,0,.91,1l0,0c.42,2.41,2.25,4,3.5,5.93A56.27,56.27,0,0,1,766.72,366a87.15,87.15,0,0,1-.34,24.62c-2.88,20.61-10.28,39-25.22,54-11.3,11.32-25,13.77-40.17,11.17-5.38-.92-9.92-4-15-5.77l-1.94-1.34C684.14,448.22,684,448,683.41,448.21Zm35.53-93c-4.48-6.3-11.15-9.31-18.05-11.92-1.69-.63-3.09.12-4.35,1.35a29.41,29.41,0,0,0-6.88,10.17A71.68,71.68,0,0,0,685.75,396c1.81,9.23,5,18,12,24.76,1.53,1.46,3,3.22,5.44,3,6.4,2.39,10.15,1.53,14.56-4a60,60,0,0,0,12.68-31.93C731.75,375.34,728.17,364.21,718.94,355.24Z" transform="translate(-115.03 -250.23)"/><path class="cls-5" d="M346.67,413.21c1.85,2.7,1.11,5.88,1.49,8.81a158,158,0,0,0,16,51.91c.47.92,1.22,1.8.92,3-3.14-2.21-3.72-5.92-5.34-9-1.09-2.11-1.43-4.76-4.31-6.29-1.17,5,.78,9.16,1.41,13.44,1.53,10.26,2.82,20.5-.52,30.65-3,9.14-8,12.9-17.45,12.89-4.94,0-10.14,1-14.61-2.17-6.82-4.85-13.8-9.53-20.3-14.78-3.7-3-5-7.78-6.35-12.28A195.33,195.33,0,0,1,291.42,461q-1.94-14.65-4.87-29.15c-.24-1.19-.09-2.71-1.86-2.74-1.36,0-1.63,1.18-2,2.2-2.41,6.94-4.93,13.85-7.21,20.84-2.63,8.08-6.21,15.62-11.66,22.19-8.11,9.8-24.9,12.07-35.48,4.87-3.39-2.32-6.41-5.15-10.15-7-8.62-4.26-13.33-11.72-16.44-20.43-1.15-3.21-2.31-6.42-3.43-9.64-.35-1-.55-2.22-1.89-2.26s-1.65,1-1.9,2.15c-2.91,12.56-6,25.06-9.84,37.38a172.44,172.44,0,0,1-10.54,27c-6.27,12.41-21.17,15.1-29.32,12.09a12.39,12.39,0,0,1-3.85-1.86c-5.35-4.56-11.67-7.66-17.43-11.59s-8.22-9.21-8.48-15.95c-.53-13.37,2.51-26.07,7.48-38.3a272.3,272.3,0,0,0,12.32-39.48c3.18-13.23,7.25-26.23,11.14-39.28,2.82-9.44,5-19.07,7.4-28.63,2.89-11.47,5.26-23.14,9.7-34.15,3.6-8.94,6.85-18.14,13.25-25.66,4.62-5.43,10.21-8.36,17.55-6.7a24.69,24.69,0,0,0,3.71.59c6.48.47,11.78,3,15.27,8.68a5.41,5.41,0,0,0,2.78,2.4c5.67,2.18,9.31,6.34,11.88,11.75,2,4.2,4.5,8.13,6.67,12.24,3,5.79,4,12.22,5.24,18.52,1,5.08,2.73,10,2.5,15.34a6.39,6.39,0,0,0,.94,3c.77,1.47,1.82,1.63,2.8.13a12.4,12.4,0,0,0,1.26-4.09c3.11-12.89,6.09-25.83,10.64-38.32a40.58,40.58,0,0,1,12.23-17.44c8.32-7,22.87-6,31,2.32a36.21,36.21,0,0,0,7.33,6.17c4.64,2.74,7.71,6.89,10.12,11.55a68.87,68.87,0,0,1,5.3,13.49c1.68,6.18,3.55,12.34,4.77,18.62,2.11,10.8,5.78,21.26,6.38,32.41.26,4.94,1.93,9.8,3,14.69,1.81,8.37,3.64,16.74,5.43,25.11.27,1.24.34,2.52,1.77,3.1C347,416.55,345.16,414.13,346.67,413.21Zm-159.23-15.6a8.61,8.61,0,0,1,2.51,5.1c2.67,12.08,5.31,24.18,9.36,35.91,2.69,7.79,4.55,16,9.55,22.75C215,469.62,223,475,233.78,472.73c9.3-1.94,17-6.61,21.49-15.54A145.94,145.94,0,0,0,263.65,438C268,425,272.14,412,275.06,398.67c.41-1.89.18-5.23,2.49-5.3s2.37,3.2,2.87,5.18c2.93,11.65,6.14,23.24,8.27,35.09,1.55,8.66,3.2,17.28,4.37,26a158.9,158.9,0,0,0,7.33,32c4.63,13,17.41,19.43,30.69,16.08,6.48-1.63,10.08-5.95,12-11.92A49.83,49.83,0,0,0,344.79,476c-1.6-17.2-5.47-34-9.27-50.8-3.33-14.69-8.14-29-10.93-43.87-2.56-13.58-5-27.17-7.8-40.7a295.26,295.26,0,0,0-7.6-30.28c-2.09-6.57-5-12.63-10.3-17.4-8.94-8.11-20.69-8.15-29.69,0-6.68,6-9.95,14-12.39,22.31-4.88,16.72-8.66,33.72-12.93,50.6-1.49,5.87-3.27,11.66-5,17.95-2-2.07-2.17-4.27-2.68-6.26-4.72-18.46-7.08-37.37-10.46-56.08-2.08-11.57-6.77-21.74-12.44-31.85-5.77-10.29-15.27-10.8-25-11-3.27-.09-6.14,1.89-8.52,4.2a30.29,30.29,0,0,0-5.33,6.74,136.49,136.49,0,0,0-13.5,32.77c-4,15.28-7.66,30.64-11.81,45.88-3.95,14.54-8.91,28.81-12.33,43.5-2.57,11-5.19,22.05-9.52,32.53a165.81,165.81,0,0,0-9.16,28.67c-1.4,6.58-2,13.28-.62,19.79,2.59,12.15,21.3,23.29,36.08,11.43a32.74,32.74,0,0,0,10.31-14.86c3.27-9.12,6.72-18.18,9.2-27.57,3.85-14.58,8-29.06,10.39-44C184.44,411.15,186,404.71,187.44,397.61Z" transform="translate(-115.03 -250.23)"/><path class="cls-6" d="M984.1,455.31c-8.16-4.25-12.18-11-13.26-20.15-1.17-9.79-2-19.59-2.77-29.43-1-13.75-2.4-27.48-3.59-41.23-.71-8.21-1.64-16.42-2-24.65-.32-8.75,2.2-16.66,8.83-22.86a19.51,19.51,0,0,1,17.87-5.12c4.4.84,7.57,3.08,9.2,7.33.2.51.35,1,.59,1.51,1.91,3.69,4.43,4.36,7.78,1.75a77.14,77.14,0,0,1,11.27-7.28c6.09-3.22,12.69-4,19.3-4,6.22,0,11.78,2.83,16.6,6.8,2.65,2.17,4.6,5,6.66,7.72-.2,1.65.43,3.18.66,4.77.62,4.24,1.87,8.43,1.23,12.79-.6,4.07-1.13,8.17-1.84,12.22A65.9,65.9,0,0,1,1048.75,384c-5.83,7.83-12.66,12.51-22.76,11l-6.29-3.73c-.3-.42-.57-.88-.91-1.27-5.64-6.38-6-11.72-1.44-19a54.48,54.48,0,0,1,7.16-8.72,22.55,22.55,0,0,0,5.61-9.94c-2.45-.9-3.79.31-4.92,1.28-3.94,3.39-8,6.79-11,11-3.36,4.7-6.24,9.77-6.29,15.75-.12,15.25-.68,30.49-1.23,45.73a76.72,76.72,0,0,1-3.82,20.53c-1.65,5.2-5.27,8.22-10.83,9.27C989.2,456.44,986.75,455.3,984.1,455.31Z" transform="translate(-115.03 -250.23)"/><path class="cls-7" d="M701.35,600c-5.9-2.23-6.58-6.91-5.75-12.29,1.2-1.65,2-3.38.95-5.43-2.1-4-1.64-8.16-.76-12.48.52-2.57,1.63-5.65-1.16-7.93a14.94,14.94,0,0,1-.49-5.24c1.38-1.4,1.09-2.51-.58-3.39-.17-1.39-.34-2.77-.52-4.15,1.37-1.32,1.11-2.44-.41-3.41a20.36,20.36,0,0,1-.69-7.37c1.36-1,.69-1.73-.42-2.33a29.66,29.66,0,0,1-.67-9.53,2.72,2.72,0,0,0,0-4.28c-.11-2.84-.33-5.69.63-8.45,1.11-.57,1.84-1.22.51-2.32,1.57-12.05,9.13-14.33,18.37-14.7a10.43,10.43,0,0,1,10.3,6.48c2.15,4.72,3.41,5.27,7.77,2.84,6.2-3.45,12.73-4.19,19.66-4.29,9.37-.13,16.62,3.49,22.39,10.6.68.83,1.45,1.57,2.18,2.35a55.45,55.45,0,0,1,4.38,20.7c.25,11.48-1.5,22.82-3.5,34-1.78,10-4.23,19.89-10.09,28.62-4.32,6.44-9,8.89-16.5,7.51a5.09,5.09,0,0,0-1.57.22,12.52,12.52,0,0,1-7.53-6.76,1.82,1.82,0,0,0-1-2.45v-5.38a7,7,0,0,0,2-5.68c.31-.9.62-1.79.92-2.69a2,2,0,0,0,1.23-2.7Q743,573.28,745,566.5a2.15,2.15,0,0,0,1.62-1.27c3.43-9.86,5-19.65-.49-29.44-2.34-4.17-4.77-5.09-8.61-2.36a18,18,0,0,0-3.9,3.69c-6.49,8.59-11,18-11.58,29-.37,6.79-1.18,13.54-1.2,20.36a21.61,21.61,0,0,1-2,8.29c-2.45,5.59-6.12,7.26-10.52,5.73A15.53,15.53,0,0,0,701.35,600Z" transform="translate(-115.03 -250.23)"/><path class="cls-8" d="M535.23,632.15c-1.36-.43-2.76-.77-4.08-1.29-5.35-2.1-8.12-6-8.62-11.78-1.69-19.78-2.13-39.59-2.27-59.44-.08-11-.78-21.95-1-32.93a95.75,95.75,0,0,1,1.29-16.53c1.26-8.15,7.81-11.6,15.37-10.58,2.5.33,3.93,2.26,4.91,4.49,2.64,6,2.58,5.94,8.23,2.14,7.21-4.85,15-8.62,23.81-8.79,8.33-.16,14.46,4.23,18.67,11.33-.15,2.07.76,3.83,1.55,5.64,3.69,8.45,6.06,17.22,6,26.51a88.34,88.34,0,0,1-4.81,27.36c-2.57,7.68-6.18,14.9-12,20.76a33.53,33.53,0,0,1-15.14,8.79c-6.38,1.75-12.41.57-18.48-1.31-3.15-1-3.33-.81-3.39,2.47-.12,5.9-.06,11.76-.91,17.67C543.38,623.27,541.27,628.75,535.23,632.15Zm24.42-58.38c4.23,1.36,5,1.3,7.25-1.82a28,28,0,0,0,4.1-6.84A96.16,96.16,0,0,0,576.31,544c.56-4.53.62-9.22-2.09-13.35-.23-5.06-3.08-9.56-6.71-10.56-4.37-1.21-8.14.37-11.57,4.62a33.19,33.19,0,0,0-3.2,4.95,56.55,56.55,0,0,0-6.94,23.44,25.83,25.83,0,0,0,5.5,18.49A7.26,7.26,0,0,0,559.65,573.77Z" transform="translate(-115.03 -250.23)"/><path class="cls-9" d="M796.13,447c-10.54-2.94-13.37-11.37-14.66-20.79-.54-3.87-.68-7.8-1-11.69a2,2,0,0,0-.25-1.9l-.54-9.53c-.15-6.58-.14-13.18-.5-19.77-.29-5.34.3-10.72-.73-16-.62-21.69-.21-43.39-.47-65.08-.08-7-.83-14-1.28-20.93a66.15,66.15,0,0,1,.28-13.42c1.15-8.23,5.49-12.4,13.81-13.12,2.67-.23,5.38,0,8.06-.18,5.46-.45,8.83,2.19,10.86,7,.42,1,.74,2,1.1,3,.16,2.48.33,5,.49,7.46,1.07,16.66-.23,33.32-.14,50,.15,26,.29,52,2.52,77.89.38,4.46-.17,9,.47,13.43.92,6.33.34,12.56-.61,18.73-1.4,9.14-5.66,13.06-14.75,14.53Z" transform="translate(-115.03 -250.23)"/><path class="cls-1" d="M983.87,603.22a1.92,1.92,0,0,0-.68-.45,1,1,0,0,0-1.29-.94,35.13,35.13,0,0,1-12-12.65,20.92,20.92,0,0,1-2.6-14.95c1-4.84,5-9.09,8.94-9.69,4.24-.66,8.4,2,10.95,7,.41.79.78,1.6,1.17,2.4,0,1.69,1,3,1.68,4.41,1.89,3.68,4.89,5.41,9.11,4.54l1.32-.14a1.73,1.73,0,0,0,2.22-.66,11.3,11.3,0,0,0,5.79-7.15c.09-4.28-2-7.43-7-9.28-4.67-1.75-9.52-3-14.3-4.54a2.8,2.8,0,0,0-.7-.39,1.57,1.57,0,0,0-1.94-1.15l-.24-.16c-.1-.68-.54-.86-1.16-.77-2.23-2.32-4.48-4.63-6.69-7-16.94-17.88-7.94-45.4,12.3-53.31a51.32,51.32,0,0,1,13.42-3.65c11.28-1.14,20.84,2.05,28.25,10.89,1.37,1.64,2.75,3.26,4.13,4.89,2.84,5.64,5.14,11.42,5.6,17.82.32,4.43-.31,8.58-2.84,12.34-4.77,7.07-9.81,8-16.6,3-3-2.14-3-5.37-3.12-8.55-.16-3.89-.47-7.74-3.39-10.76a2.18,2.18,0,0,0-.17-2c-3.25-6.33-10.21-8.75-17.46-6.06-8,3-10,11.7-4,17.74,1.86,1.88,3.9,3.69,6.65,4.28,5.62,4.48,12.54,5.29,19.21,6.8,6,2,10.21,5.88,12.19,12a6.29,6.29,0,0,0,1.27,1.65c.16,1.06.35,2.11.47,3.17.94,8.69,1,17.33-3.72,25.09a37.12,37.12,0,0,1-21.65,16.72,39.4,39.4,0,0,1-19.64.63,2.26,2.26,0,0,0-2.16-.28h0C985.07,603.23,984.56,603.1,983.87,603.22Z" transform="translate(-115.03 -250.23)"/><path class="cls-10" d="M679.81,553.34c1,3,3.07,5.53,4.57,8.31.79,7.39-1.7,14.17-4.62,20.62-3.69,8.18-9.37,14.72-18.61,17.12a47.31,47.31,0,0,1-21.66.53c-1.48-.3-3.26-2.15-4.87-.07-2.49-2.64-6.09-3.76-8.67-6.25a52.93,52.93,0,0,1-11.79-17.15c-.86-2-1.57-4-2.36-6-.52-1.3-1.38-2.09-2.89-1.8,1.38-6.64,1-13.36,1-20.06,0-4.58.41-9.2-1-13.68,1.71,0,1.85-1.16,2.15-2.46a54.89,54.89,0,0,1,5.71-15.52c3.89-6.78,8.81-12.65,15.78-16.36,9.94-5.3,24.09-3.07,32.35,4.72,2.33,2.2,4.06,5,6.77,6.81-2.16,1.43-.86,3.11-.39,4.77a32.41,32.41,0,0,1-2,23.42,53.5,53.5,0,0,1-9.61,13.46,108.82,108.82,0,0,1-19.38,16.84c-2.76,1.81-2.67,3,.2,4.48a20.54,20.54,0,0,0,8.24,2.1c4.79.24,8.14-1.42,10.65-5.65a69.92,69.92,0,0,0,6.44-13.46c1.68-5.05,4.2-6.48,9.35-5.67C676.69,552.65,678.13,553.6,679.81,553.34Zm-30-27.81a6.67,6.67,0,0,0-2.73-6.63,2.33,2.33,0,0,0-2.89-.33,22.86,22.86,0,0,0-11.13,11.68c-2.15,5.08-2.2,10.42-3.55,15.56-.34,1.32-.75,3,.74,3.91s3.09.12,4.31-1.09c2.91-2.91,6.14-5.58,8.64-8.81C646.48,535.62,649.65,531.2,649.83,525.53Z" transform="translate(-115.03 -250.23)"/><path class="cls-11" d="M859.9,562.08c1.83,1.69,2.4,4.12,3.61,6.17-.46,4.23.19,8.56-1.68,12.64-2.24,4.88-4.54,9.72-8.14,13.75-7.71,8.64-17.06,12.34-28.76,9.84-4.76-1-8.87-3.58-13.55-4.61l-1.86-1.49a1,1,0,0,0-1.16-.85c-8.87-5.76-14.68-13.9-18.37-23.69-.68-1.83-1.33-3.68-2-5.52a8.86,8.86,0,0,0-.33-2.09,32.44,32.44,0,0,1-2.18-18.38c.67-3.89,2-7.61,2.52-11.5,2.44-7.14,4.85-14.3,9.76-20.25,7-8.56,15.67-14.8,26.58-17.34,7.58-1.76,14.58-.39,20.66,4.88a79.4,79.4,0,0,1,8.46,8.94,28.23,28.23,0,0,0,1.06,3c3.58,7.31,3.85,15.1,3.5,23a12.27,12.27,0,0,1-3.45,8.15c-3,3.27-6.72,3.71-10.75,3.44-4.58-1.48-7.29-4.77-8.85-9.17-.59-1.65-1.22-3.3-1.83-5a89.08,89.08,0,0,0-2-10c-1.29-4.05-3.3-4.55-6.86-2.39a16.53,16.53,0,0,0-5.1,4.71c-10.24,14.8-9.94,30.19-2.3,45.84,1.73,3.53,4.27,6.7,8.83,7,4.37,1.9,7.16,1.28,9.4-2.72a48.57,48.57,0,0,0,4.22-9.84c1.57-5.34,4.3-9.36,9.82-11.06C853.59,557.06,856.92,559.14,859.9,562.08Z" transform="translate(-115.03 -250.23)"/><path class="cls-5" d="M504.48,349c.12,5.71-.31,11.44.64,17.11-2.17.6-3,2-3.33,4.28-3.26,23.21-7.65,46.22-12.29,69.19-2.16,10.67-3.3,21.56-4.93,32.34-.81,5.31-1.56,10.63-2.59,15.9-2.67,13.52-5.32,27-8.3,40.49a200.87,200.87,0,0,1-6.29,22.76c-2.71,7.78-4.6,15.83-7.56,23.54-5.34,13.84-14,24.89-27,32.39-13.51,7.83-27.34,7.45-41.22,1.14A84.19,84.19,0,0,1,373.33,597c-.82-.68-1.74-1.29-1.81-2.52,5.92,2.45,11.45,5.71,17.89,7,13.94,2.81,26.16-.55,37.44-8.93,12.13-9,18.66-21.56,23-35.48,4.65-15.07,9.74-30,12.84-45.52s6.55-31.25,9.06-47c2-12.55,3.33-25.22,5.65-37.73,2.62-14.1,6-28.06,8.17-42.24,1.47-9.38,3.19-18.72,4.55-28.12,1-6.84.32-13.55-3-19.79,8.15,2.41,12.7,8.37,15.1,16.22,2-1.12,1.4-2.52,1.66-3.66,0-.15.14-.41.2-.41A1.35,1.35,0,0,1,504.48,349Z" transform="translate(-115.03 -250.23)"/><path class="cls-12" d="M922.17,467.92l.3-1.87a9.88,9.88,0,0,0,1.8-5.48c2-3.71,4.69-6.53,8.93-7.58,1.17-.29,2.46-.33,3.33-1.37l3.3-.44c.78.85,1.48.73,2.14-.15,3.69.08,6.66,1.31,8,5.07a1.8,1.8,0,0,0,.65,2.4c.13.63.27,1.27.41,1.9a85,85,0,0,1,.59,11.73c0,12.9.05,25.81,0,38.72-.13,23.84.09,47.67,1.14,71.49a54.65,54.65,0,0,1-1.39,13.33c-1.35,6.62-5.63,9.16-12.26,7.71a25,25,0,0,0-2.62-.32,2.58,2.58,0,0,0-.76-.33,1,1,0,0,0-1.37-.77l-.74-.59c0-.69-.4-.92-1-.78l-1.19-1.09c.07-.66-.2-1-.89-1.08a3.55,3.55,0,0,1-.45-.75c-2.68-7.46-3.29-15.23-3.72-23.07-.35-6.37-1.14-12.71-1.74-19.07l-.6-10.78a77.68,77.68,0,0,0-.47-20.49c-.1-1.69-.19-3.39-.29-5.08a24.21,24.21,0,0,0-.72-11.09q-.15-5.25-.32-10.49Z" transform="translate(-115.03 -250.23)"/><path class="cls-13" d="M885.9,596.53c-3.27-3.13-4.59-7.15-5.23-11.47a175.41,175.41,0,0,1-1.71-23c-.23-15.89-1.18-31.82.81-47.68.71-5.69,2.74-10.36,8.4-12.7,7.05-1.81,11.16.5,13,7.3.28,1,.5,2.07,1.66,2.52l.12.11c.11,5,.27,10,.3,15,.07,9.15-.56,18.35.25,27.43.91,10.22.53,20.41.75,30.61a17.38,17.38,0,0,1-2,8.29c-2.25,4.42-5.79,6-10.6,4.83C889.73,597.37,887.81,597,885.9,596.53Z" transform="translate(-115.03 -250.23)"/><path class="cls-5" d="M796.13,447l2.65-.4c9.09-1.47,13.35-5.39,14.75-14.53,1-6.17,1.53-12.4.61-18.73-.64-4.41-.09-9-.47-13.43C811.44,374,811.3,348,811.15,322c-.09-16.67,1.21-33.33.14-50-.16-2.49-.33-5-.49-7.46,8.08.19,11.05,6.39,11.06,13.25,0,9.45,2.2,18.84.41,28.38-.81,4.33-.19,8.94-.19,13.42,0,16-.7,32,.24,47.86.9,15,.65,30,2.44,45,1.22,10.19,1.82,20.78-.67,31-1.28,5.28-3.48,10.07-9.62,11.86C806,457.83,800,455.29,796.13,447Z" transform="translate(-115.03 -250.23)"/><path class="cls-14" d="M608.89,534.92c1.41,4.48,1,9.1,1,13.68,0,6.7.4,13.42-1,20.06-.26.47-.76.94-.75,1.41.13,7.73-3.59,14.31-7.14,20.6-6.34,11.22-15.87,18.28-29.38,18.65-2.73.08-5.28-.86-7.89-1.48-1.71-.4-3.39-.92-5.17-1.42-1.1,3-.56,5.68-.57,8.32a79,79,0,0,1-2.21,17c-1.52,6.72-4.52,9.82-9,9.88-5.12.07-9.67-3.64-11.6-9.47,6-3.4,8.15-8.88,9.09-15.49.85-5.91.79-11.77.91-17.67.06-3.28.24-3.44,3.39-2.47,6.07,1.88,12.1,3.06,18.48,1.31A33.53,33.53,0,0,0,582.24,589c5.84-5.86,9.45-13.08,12-20.76a88.34,88.34,0,0,0,4.81-27.36c.08-9.29-2.29-18.06-6-26.51-.79-1.81-1.7-3.57-1.55-5.64,4.76,1.51,8.75,4.22,11,8.71C605.25,523,607.76,528.74,608.89,534.92Z" transform="translate(-115.03 -250.23)"/><path class="cls-5" d="M778.44,367.3c1,5.31.44,10.69.73,16,.36,6.59.35,13.19.5,19.77-1.93.79-2.48,2.53-2.79,4.31-2,11.46-6.64,21.95-12.22,32-4.55,8.23-10.3,15.8-18.4,20.69-14.75,8.9-30.09,9.56-45.46,1.15-3-1.63-5.93-3.35-8.79-5.19-2.4-1.55-4.74-3.25-6-6,5,1.77,9.58,4.84,15,5.76,15.16,2.6,28.87.15,40.17-11.17,14.94-15,22.34-33.41,25.22-54a87.15,87.15,0,0,0,.34-24.62,56.27,56.27,0,0,0-8.83-23.42c-1.25-1.9-3.08-3.52-3.5-5.93,6.08,3.4,10.1,8.82,13.85,14.41a59.64,59.64,0,0,1,7.23,13.67C776,366.3,776.77,367.25,778.44,367.3Z" transform="translate(-115.03 -250.23)"/><path class="cls-15" d="M936.53,451.62c-.87,1-2.16,1.08-3.33,1.37-4.24,1.05-7,3.87-8.93,7.58a7.58,7.58,0,0,0-4.62,2,4.55,4.55,0,0,1-3.8,1.28c-4.55,1.59-9.06,3.27-14,3.45-1.17.05-2.32.86-3.47,1.32-5.39-3.76-10.59-3.44-15.62.7,0-1.87-1.39-2.24-2.75-2.79-6.4-2.57-11.77-6.82-17.3-10.81a3.68,3.68,0,0,1-1.78-2.56l8.79,3.85a29.74,29.74,0,0,0,17.34,2.17c4.23-.71,8.44-1.34,12.65-2.34,11.9-2.83,20.19-10.54,27.6-19.46,9.09-11,13-24.16,15.71-37.85a145.76,145.76,0,0,0,2.48-28.89c-.06-11.08-2.39-21.72-5.89-32.13-1.19-3.53-3-6.85-4.58-10.27,4,.55,6,3.76,7.88,6.63,8.84,13.16,12.32,28,13,43.6a134,134,0,0,1-8.6,53.07c-2,5.27-5.27,9.71-8.33,14.33C937.84,447.63,936.06,449.16,936.53,451.62Z" transform="translate(-115.03 -250.23)"/><path class="cls-5" d="M430,487.81c-.53,2.54-2.14,2.13-3.53,1-4.91-3.9-9.68-7.91-12.72-13.64-7.58-14.27-11.71-29.56-14-45.45a235.78,235.78,0,0,1-2-43.4c.46-11.08.12-22.22-.44-33.31-.36-7.14-2.45-14-5.22-20.7,10.14,4.39,15.22,12.32,16.89,23.06a162.89,162.89,0,0,1,2,28.4c-.14,6.44-.09,12.88-.64,19.34-.76,8.92.66,17.86,1.29,26.79a152.14,152.14,0,0,0,4.87,29.66c2.42,8.81,5.38,17.49,10,25.5C427.3,486.52,428,488,430,487.81Z" transform="translate(-115.03 -250.23)"/><path class="cls-15" d="M936.5,603.06a25,25,0,0,1,2.62.32c6.63,1.45,10.91-1.09,12.26-7.71a54.65,54.65,0,0,0,1.39-13.33c-1-23.82-1.27-47.65-1.14-71.49.08-12.91,0-25.82,0-38.72a85,85,0,0,0-.59-11.73c3.28.61,6.84.46,8.91,4a19.18,19.18,0,0,1,2.13,7.7,60.32,60.32,0,0,1,.22,7c0,22.81-.15,45.62.06,68.42.15,15.42,1.12,30.84,1,46.27a67.57,67.57,0,0,1-.9,10.7c-.78,4.64-2.52,8.26-7.42,9.47-5.23,1.28-9.68-.46-13-4.43C940.25,607.31,938.48,605.1,936.5,603.06Z" transform="translate(-115.03 -250.23)"/><path class="cls-5" d="M546.79,446.64c5.67,1.67,11.28,3.54,17,5,16,4,31.71,3.9,46.61-4,17.35-9.25,26.47-24.08,28.88-43.4.77-6.25,1.13-12.45,0-18.67,8.23,1.78,12.37,8.81,12.61,16.59.35,11.87-1.74,23.23-7.26,33.79-5.89,11.24-15.11,18.86-26.69,23.86A63.47,63.47,0,0,1,597,464.4c-6.26.45-12.55-.73-18.64-2-9.82-2.14-19.45-5.09-27.58-11.49C549.26,449.63,547.64,448.52,546.79,446.64Z" transform="translate(-115.03 -250.23)"/><path class="cls-5" d="M571.15,409.43c-6.08-1.66-9.22-6.51-12.33-11.37-4.16-6.52-5.64-14-6.81-21.41a160.13,160.13,0,0,1-2.25-31.07c.52-13,2.37-25.7,8.76-37.38a47.47,47.47,0,0,1,15.61-16.79c6.81-4.55,13.06-3.76,19,2,1.65,1.61,3.62,3,4.41,5.35-6.22-.8-11.09,2-15.6,5.81-9.58,8.08-15,18.64-17.5,30.68-3.83,18.29-2.79,36.56.47,54.89C566.13,397,568.73,403.11,571.15,409.43Z" transform="translate(-115.03 -250.23)"/><path class="cls-5" d="M984.1,455.31c2.65,0,5.1,1.13,7.94.6,5.56-1.05,9.18-4.07,10.83-9.27a76.72,76.72,0,0,0,3.82-20.53c.55-15.24,1.11-30.48,1.23-45.73.05-6,2.93-11.05,6.29-15.75,3-4.25,7-7.65,11-11,1.13-1,2.47-2.18,4.92-1.28a22.55,22.55,0,0,1-5.61,9.94,54.48,54.48,0,0,0-7.16,8.72c-4.57,7.28-4.2,12.62,1.44,19,.34.39.61.85.91,1.27a19.15,19.15,0,0,0-1.38,7.31c0,5.37-.22,10.75-.19,16.12a284.89,284.89,0,0,1-2.15,33.67,37.54,37.54,0,0,1-2.42,8.22,13.92,13.92,0,0,1-19.16,8.38A19.18,19.18,0,0,1,984.1,455.31Z" transform="translate(-115.03 -250.23)"/><path class="cls-10" d="M788,536.35c-.56,3.89-1.85,7.61-2.52,11.5a32.44,32.44,0,0,0,2.18,18.38,8.86,8.86,0,0,1,.33,2.09c-1.84.16-2.25,1.33-2.35,3-.61,9.56-3.16,18.69-6.49,27.61a33.61,33.61,0,0,1-10,14.44c-5,4.18-12.47,5.25-17.74-.93-1.95-2.29-3.44-5-6.06-6.7a5.39,5.39,0,0,1,1.57-.21c7.55,1.38,12.18-1.07,16.5-7.51,5.86-8.73,8.31-18.64,10.09-28.62,2-11.21,3.75-22.55,3.5-34a55.45,55.45,0,0,0-4.38-20.7c6.24,3.25,10.8,7.94,12.92,14.81C786.28,531.78,786,534.46,788,536.35Z" transform="translate(-115.03 -250.23)"/><path class="cls-10" d="M701.35,600a15.53,15.53,0,0,1,6.9.5c4.4,1.53,8.07-.14,10.52-5.73a21.61,21.61,0,0,0,2-8.29c0-6.82.83-13.57,1.2-20.36.59-10.94,5.09-20.37,11.58-29a18,18,0,0,1,3.9-3.69c3.84-2.73,6.27-1.81,8.61,2.36,5.51,9.79,3.92,19.58.49,29.44A2.15,2.15,0,0,1,745,566.5c1-4.72,2.11-9.42,2.89-14.18a14.4,14.4,0,0,0-.27-7.13,8.35,8.35,0,0,0-4.05,3.64c-5.34,8.39-9.45,17.08-10.09,27.37-.36,5.89-.47,11.79-.89,17.67a31,31,0,0,1-3.39,12.29c-3.72,7.11-17.11,7.63-21.28-.12-1.41-2.6-2.61-4.48-5.64-4.83C701.91,601.17,701.65,600.39,701.35,600Z" transform="translate(-115.03 -250.23)"/><path class="cls-5" d="M1026,395c10.1,1.54,16.93-3.14,22.76-11a65.9,65.9,0,0,0,11.93-28.49c.71-4.05,1.24-8.15,1.84-12.22.64-4.36-.61-8.55-1.23-12.79-.23-1.59-.86-3.12-.66-4.77,5.48,3.37,9.33,7.56,10.94,14.31,2.4,10,.55,19.5-1.38,29.14-2.5,12.52-8.09,23.3-17.66,31.86a16.85,16.85,0,0,1-26.22-4.51A5.47,5.47,0,0,1,1026,395Z" transform="translate(-115.03 -250.23)"/><path class="cls-15" d="M885.9,596.53c1.91.43,3.83.84,5.74,1.3,4.81,1.15,8.35-.41,10.6-4.83a17.38,17.38,0,0,0,2-8.29c-.22-10.2.16-20.39-.75-30.61-.81-9.08-.18-18.28-.25-27.43,0-5-.19-10-.3-15,7.3,1.34,9.81,4,10.76,12.15A89.19,89.19,0,0,1,914,534c0,8.61-.57,17.26.09,25.82.87,11.29.83,22.57.94,33.86a20.55,20.55,0,0,1-1.91,9.39c-3.21,6.55-14.3,7.59-18,1.42-2.05-3.42-4-6.18-8.18-6.81C886.53,597.62,886.24,596.93,885.9,596.53Z" transform="translate(-115.03 -250.23)"/><path class="cls-14" d="M634.62,599.85c1.61-2.08,3.39-.23,4.87.07a47.31,47.31,0,0,0,21.66-.53c9.24-2.4,14.92-8.94,18.61-17.12,2.92-6.45,5.41-13.23,4.62-20.62,3.57.09,6.33,2,8.67,4.34,1.77-1.29.66-3,1.58-4.16,2.79,2.28,1.68,5.36,1.16,7.93-.88,4.32-1.34,8.43.76,12.48,1.06,2,.25,3.78-.95,5.43-2.09.5-2.36,2.36-3.16,4-2.8,5.57-5.5,11.24-11.1,14.73C668.11,614.59,645,614,634.62,599.85Z" transform="translate(-115.03 -250.23)"/><path class="cls-15" d="M811.38,599.87c4.68,1,8.79,3.6,13.55,4.61,11.7,2.5,21.05-1.2,28.76-9.84,3.6-4,5.9-8.87,8.14-13.75,1.87-4.08,1.22-8.41,1.68-12.64,7.23,1.52,10.06,5.36,10.68,12.58.91,10.46-8.68,28.31-22.62,33-5.72,1.94-11.7,1.47-17.51.12-7.1-1.64-13.28-5.3-19-9.65C813.51,603.18,811.8,602,811.38,599.87Z" transform="translate(-115.03 -250.23)"/><path class="cls-5" d="M987.25,604.37a39.4,39.4,0,0,0,19.64-.63A37.12,37.12,0,0,0,1028.54,587c4.67-7.76,4.66-16.4,3.72-25.09-.12-1.06-.31-2.11-.47-3.17,3.3,2.15,6.92,4.21,7.93,8.28a52.54,52.54,0,0,1,.89,20.2c-.59,4.2-3.18,7.57-3.65,11.68a1.06,1.06,0,0,1-.4.81,16.3,16.3,0,0,0-8.34,8.35,1.13,1.13,0,0,1-.86.38c-4.54,1.46-9.09,2.92-13.14,5.55l-2.28.55a12.29,12.29,0,0,0-9.47,0l-2.46-.43a3.3,3.3,0,0,0-3.5-1.28,5.36,5.36,0,0,1-3.84-1.58c-.19-1.44-1.09-1.88-2.41-1.74a2.18,2.18,0,0,1-1.87-1.35Z" transform="translate(-115.03 -250.23)"/><path class="cls-14" d="M679.81,553.34c-1.68.26-3.12-.69-4.69-.94-5.15-.81-7.67.62-9.35,5.67a69.92,69.92,0,0,1-6.44,13.46c-2.51,4.23-5.86,5.89-10.65,5.65a20.54,20.54,0,0,1-8.24-2.1c-2.87-1.43-3-2.67-.2-4.48a108.82,108.82,0,0,0,19.38-16.84,53.5,53.5,0,0,0,9.61-13.46,32.41,32.41,0,0,0,2-23.42c-.47-1.66-1.77-3.34.39-4.77,1.5.57,3,1.12,4,2.54a3.13,3.13,0,0,0,3.19,3.19,12.19,12.19,0,0,1,3.5,7.19c1,3.93.9,7.94.92,12,0,1.53-.45,3.19.88,4.48-.13.72-.26,1.43-.38,2.15-1.19.41-2,.94-.7,2.17C682.48,548.52,679.65,550.29,679.81,553.34Z" transform="translate(-115.03 -250.23)"/><path class="cls-13" d="M882.77,469.34c5-4.14,10.23-4.46,15.62-.7a5.76,5.76,0,0,0,3.1,3,4.23,4.23,0,0,1,1.66,3.11,6.34,6.34,0,0,0,2.24,4.26c0,2,.05,3.95-.12,5.9-.86,9.58-8.55,15.41-17.75,13.56a14.73,14.73,0,0,0-2.66-.05A15.93,15.93,0,0,1,877,481.71,21.49,21.49,0,0,1,882.77,469.34Z" transform="translate(-115.03 -250.23)"/><path class="cls-15" d="M615.08,313.24c9.76-.68,14.51-4.56,17.73-14,2.94-8.64,2.57-16.76-2.87-24.36a8.93,8.93,0,0,1-.79-2c15.25,7.73,21.4,24.82,14.35,40a21.13,21.13,0,0,1-8.28,8.95c-4.9,3-12,1.58-16.14-3A19.6,19.6,0,0,1,615.08,313.24Z" transform="translate(-115.03 -250.23)"/><path class="cls-15" d="M1037,598.92c.47-4.11,3.06-7.48,3.65-11.68a52.54,52.54,0,0,0-.89-20.2c-1-4.07-4.63-6.13-7.93-8.28a6.29,6.29,0,0,1-1.27-1.65c-2-6.14-6.17-10-12.2-12,.77-.48,1.94-.3,2.32-1.41,6.79,5,11.83,4,16.6-3,2.53-3.76,3.16-7.91,2.84-12.34-.46-6.4-2.76-12.18-5.6-17.82,1.24-.28,2,.49,2.81,1.23a40.94,40.94,0,0,1,13.18,26.36c1.07,10.43-3.76,17.1-13.9,19.69a1,1,0,0,0,.06,1.41c8.93,11.54,8,23.91,3.06,36.59C1039.18,597.08,1038.51,598.42,1037,598.92Z" transform="translate(-115.03 -250.23)"/><path class="cls-15" d="M859.9,562.08c-3-2.94-6.31-5-10.74-4.48a12.65,12.65,0,0,0-5.34-7.42c4,.27,7.75-.17,10.75-3.44a12.27,12.27,0,0,0,3.45-8.15c.35-7.9.08-15.69-3.5-23a28.23,28.23,0,0,1-1.06-3c4.6,1.33,7.27,5,9.6,8.67a41.29,41.29,0,0,1,6.32,26.55c-.47,5.21-2.55,9.67-7.79,11.85A2.57,2.57,0,0,0,859.9,562.08Z" transform="translate(-115.03 -250.23)"/><path class="cls-15" d="M884.86,498.38a14.73,14.73,0,0,1,2.66.05c9.2,1.85,16.89-4,17.75-13.56.17-1.95.09-3.93.12-5.9l1.2-1.32c7,2.66,9.57,8.07,9.47,15.18s-3.37,12.22-9.58,15.54c-1.46.78-3.79.53-3.66,3.15-1.16-.45-1.38-1.49-1.66-2.52-1.83-6.8-5.94-9.11-13-7.3C888.58,499.09,885.65,499.8,884.86,498.38Z" transform="translate(-115.03 -250.23)"/><path class="cls-5" d="M987.11,561.09c4.78,1.5,9.63,2.79,14.3,4.54,5,1.85,7.11,5,7,9.28-3.15-1.22-6.28-2.53-9.47-3.64C993.65,569.42,990,565.75,987.11,561.09Z" transform="translate(-115.03 -250.23)"/><path class="cls-7" d="M924.6,555.53c.6,6.36,1.39,12.7,1.74,19.07.43,7.84,1,15.61,3.72,23.07-2.76-1.47-3.18-4.34-3.51-6.87A293.68,293.68,0,0,1,924,557.54,7,7,0,0,1,924.6,555.53Z" transform="translate(-115.03 -250.23)"/><path class="cls-5" d="M395.23,512.5c5.64,2.56,10.88,6,17.14,7.1a2.36,2.36,0,0,1,2,2.76c-.15,1.74.45,3.6-.82,5.16a9.11,9.11,0,0,0-4.43-4.4,86.71,86.71,0,0,1-12-8.14C396.25,514.33,395.32,513.73,395.23,512.5Z" transform="translate(-115.03 -250.23)"/><path class="cls-7" d="M922.17,467.92l0,29.68a2,2,0,0,1-1-1.76c-.2-8.55-1.08-17.1-.13-25.66C921.15,469.29,921.25,468.41,922.17,467.92Z" transform="translate(-115.03 -250.23)"/><path class="cls-5" d="M347.85,541.5c-3.42,9.2-4.08,18.4-.14,27.65a4.7,4.7,0,0,1,.12,1.56c-1.79-.39-1.85-2.05-2.32-3.32-2.67-7.37-2.39-14.82-.36-22.25C345.55,543.66,345.84,541.88,347.85,541.5Z" transform="translate(-115.03 -250.23)"/><path class="cls-5" d="M400,552.79c-3.62,2.31-6.62,2.39-9.94-.32-2.83-2.31-5.59-4.81-6.92-8.4,3.28.54,5.65,2.67,7.7,5C393.36,551.91,396.18,553.44,400,552.79Z" transform="translate(-115.03 -250.23)"/><path class="cls-5" d="M999.1,582.86c-4.22.87-7.22-.86-9.11-4.54-.71-1.38-1.7-2.72-1.68-4.41C993.32,575.19,996.56,578.61,999.1,582.86Z" transform="translate(-115.03 -250.23)"/><path class="cls-7" d="M923.53,524.26a77.68,77.68,0,0,1,.47,20.49C923.05,537.94,922.19,531.13,923.53,524.26Z" transform="translate(-115.03 -250.23)"/><path class="cls-5" d="M437.06,428.11c-.42,6.93.07,13.94-2,20.69-1.06-4.24-.44-8.48.28-12.65C435.77,433.47,434.56,430.36,437.06,428.11Z" transform="translate(-115.03 -250.23)"/><path class="cls-7" d="M901.49,471.6a5.76,5.76,0,0,1-3.1-3c1.15-.46,2.3-1.27,3.47-1.32,4.93-.18,9.44-1.86,14-3.45-2.65,3-6.62,2.83-10,4.1C904,468.66,901.31,468.43,901.49,471.6Z" transform="translate(-115.03 -250.23)"/><path class="cls-5" d="M433.76,469.06c.06,6.18.33,12.4-3.28,17.92.75-5.61,1.47-11.21,2.27-16.81C432.81,469.76,433.41,469.43,433.76,469.06Z" transform="translate(-115.03 -250.23)"/><path class="cls-10" d="M684.12,541.46c-1.33-1.29-.88-3-.88-4.48,0-4,.1-8-.92-12a3.34,3.34,0,0,1,1.94,2.4C685.48,532.13,686.1,536.8,684.12,541.46Z" transform="translate(-115.03 -250.23)"/><path class="cls-5" d="M347.38,354.73a53.6,53.6,0,0,1-1.77,16.44A30,30,0,0,1,347.38,354.73Z" transform="translate(-115.03 -250.23)"/><path class="cls-5" d="M413.26,529.44c-.08,5.31-.74,10.44-4.63,14.55C410.52,539.25,410.9,534,413.26,529.44Z" transform="translate(-115.03 -250.23)"/><path class="cls-5" d="M345.57,398.12c1.73,3.95,1.17,8.05.74,12.13C344.26,406.32,344.83,402.22,345.57,398.12Z" transform="translate(-115.03 -250.23)"/><path class="cls-15" d="M1028.22,608.08a16.3,16.3,0,0,1,8.34-8.35A14.91,14.91,0,0,1,1028.22,608.08Z" transform="translate(-115.03 -250.23)"/><path class="cls-15" d="M1014.22,614c4-2.63,8.6-4.09,13.14-5.55C1023.86,612.38,1019.18,613.53,1014.22,614Z" transform="translate(-115.03 -250.23)"/><path class="cls-5" d="M449.92,341.83a49.49,49.49,0,0,1-4,12.09A16.21,16.21,0,0,1,449.92,341.83Z" transform="translate(-115.03 -250.23)"/><path class="cls-5" d="M476.41,327.57l-11.26-.24C468.94,325.69,472.7,325.34,476.41,327.57Z" transform="translate(-115.03 -250.23)"/><path class="cls-5" d="M434.56,456.05a24.71,24.71,0,0,1-.59,11.08C432.94,463.37,432.62,459.65,434.56,456.05Z" transform="translate(-115.03 -250.23)"/><path class="cls-7" d="M922.52,508.09a24.21,24.21,0,0,1,.72,11.09C921.3,515.59,922.07,511.83,922.52,508.09Z" transform="translate(-115.03 -250.23)"/><path class="cls-15" d="M1002.47,614.58a12.29,12.29,0,0,1,9.47,0A9.65,9.65,0,0,1,1002.47,614.58Z" transform="translate(-115.03 -250.23)"/><path class="cls-5" d="M380.5,500.27A17.41,17.41,0,0,1,387,506.5C383.53,505.79,381.61,503.46,380.5,500.27Z" transform="translate(-115.03 -250.23)"/><path class="cls-5" d="M443.44,368.79c.57,3,.77,6-.88,8.85C441.89,374.59,441.54,371.58,443.44,368.79Z" transform="translate(-115.03 -250.23)"/><path class="cls-7" d="M919.65,462.59a7.58,7.58,0,0,1,4.62-2,9.88,9.88,0,0,1-1.8,5.48A5.1,5.1,0,0,0,919.65,462.59Z" transform="translate(-115.03 -250.23)"/><path class="cls-5" d="M351.83,338.61a19.6,19.6,0,0,1-2.92,8.84C348.63,344.09,349.24,341,351.83,338.61Z" transform="translate(-115.03 -250.23)"/><path class="cls-5" d="M360.81,532.69a32.59,32.59,0,0,1-7.55,3.38C355,533.29,357.49,532,360.81,532.69Z" transform="translate(-115.03 -250.23)"/><path class="cls-5" d="M370.59,533.87l-7.84-1.54C365.81,530.56,368.33,531.55,370.59,533.87Z" transform="translate(-115.03 -250.23)"/><path class="cls-5" d="M366.59,479.73a11.86,11.86,0,0,1,3.86,6.9C367.83,485.08,367,482.52,366.59,479.73Z" transform="translate(-115.03 -250.23)"/><path class="cls-5" d="M442,384.09a8.5,8.5,0,0,1-.35,6.49A6.2,6.2,0,0,1,442,384.09Z" transform="translate(-115.03 -250.23)"/><path class="cls-5" d="M439.11,409.75c.52,2.33.69,4.62-.83,6.71C437.35,414.07,437.35,411.8,439.11,409.75Z" transform="translate(-115.03 -250.23)"/><path class="cls-5" d="M437.79,419.39a10.12,10.12,0,0,1-.54,6.77A6.09,6.09,0,0,1,437.79,419.39Z" transform="translate(-115.03 -250.23)"/><path class="cls-5" d="M370.83,487.32a10.37,10.37,0,0,1,3.91,5.8C372.15,492.05,371,490,370.83,487.32Z" transform="translate(-115.03 -250.23)"/><path class="cls-5" d="M459.29,329.57a10.71,10.71,0,0,1-4.39,4.1C455.3,331.17,456.6,329.62,459.29,329.57Z" transform="translate(-115.03 -250.23)"/><path class="cls-5" d="M381.45,323.49a14.84,14.84,0,0,1-5.94-2.29C378,320.63,380.13,321,381.45,323.49Z" transform="translate(-115.03 -250.23)"/><path class="cls-5" d="M440.22,401.13a5.72,5.72,0,0,1-.79,5.62C438.5,404.71,438.51,402.8,440.22,401.13Z" transform="translate(-115.03 -250.23)"/><path class="cls-15" d="M987.25,604.37l1.14,3.83c-2.23-.46-3.43-1.75-3.3-4.11A2.26,2.26,0,0,1,987.25,604.37Z" transform="translate(-115.03 -250.23)"/><path class="cls-10" d="M738.93,585.45a7,7,0,0,1-2,5.68C736,588.67,736.91,586.86,738.93,585.45Z" transform="translate(-115.03 -250.23)"/><path class="cls-5" d="M369.44,320.52a15,15,0,0,1-5.5,1.89C365.22,320.17,367.13,319.77,369.44,320.52Z" transform="translate(-115.03 -250.23)"/><path class="cls-7" d="M906.59,477.65l-1.2,1.32a6.34,6.34,0,0,1-2.24-4.26C904.36,475.62,905.79,476.27,906.59,477.65Z" transform="translate(-115.03 -250.23)"/><path class="cls-5" d="M387.26,506.68a5.34,5.34,0,0,1,4,3.15A3.93,3.93,0,0,1,387.26,506.68Z" transform="translate(-115.03 -250.23)"/><path class="cls-5" d="M441.34,392.52a5.12,5.12,0,0,1-.78,4.53C439.72,395.35,439.5,393.76,441.34,392.52Z" transform="translate(-115.03 -250.23)"/><path class="cls-14" d="M690.84,522.13a2.72,2.72,0,0,1,0,4.28A2.84,2.84,0,0,1,690.84,522.13Z" transform="translate(-115.03 -250.23)"/><path class="cls-5" d="M375.16,493.77a4.34,4.34,0,0,1,2.85,3.64A3.19,3.19,0,0,1,375.16,493.77Z" transform="translate(-115.03 -250.23)"/><path class="cls-10" d="M678.82,517.84a3.13,3.13,0,0,1-3.19-3.19A3.13,3.13,0,0,1,678.82,517.84Z" transform="translate(-115.03 -250.23)"/><path class="cls-14" d="M693.56,553.2c1.67.88,2,2,.58,3.39C692.89,555.64,692.94,554.47,693.56,553.2Z" transform="translate(-115.03 -250.23)"/><path class="cls-14" d="M692.63,545.64c1.52,1,1.78,2.09.41,3.41C691.82,548,692,546.88,692.63,545.64Z" transform="translate(-115.03 -250.23)"/><path class="cls-5" d="M444.5,362.31a3.1,3.1,0,0,1-.72,3.47C442.88,364.39,443,363.21,444.5,362.31Z" transform="translate(-115.03 -250.23)"/><path class="cls-5" d="M348.54,349.37a2.72,2.72,0,0,1-.76,3.47C346.86,351.43,347.2,350.29,348.54,349.37Z" transform="translate(-115.03 -250.23)"/><path class="cls-15" d="M996.51,612.87a3.3,3.3,0,0,1,3.5,1.28C998.43,614.85,997.36,614.18,996.51,612.87Z" transform="translate(-115.03 -250.23)"/><path class="cls-5" d="M391.46,510a3.15,3.15,0,0,1,3.14,2.12C393,512.18,391.84,511.64,391.46,510Z" transform="translate(-115.03 -250.23)"/><path class="cls-15" d="M950.66,458.5a1.8,1.8,0,0,1-.65-2.4C951.23,456.63,951.71,457.36,950.66,458.5Z" transform="translate(-115.03 -250.23)"/><path class="cls-5" d="M375.93,537.19a2.34,2.34,0,0,1-2.5-1.69C374.86,535.18,375.73,535.69,375.93,537.19Z" transform="translate(-115.03 -250.23)"/><path class="cls-14" d="M691.52,535.94c1.11.6,1.78,1.29.42,2.33A1.49,1.49,0,0,1,691.52,535.94Z" transform="translate(-115.03 -250.23)"/><path class="cls-5" d="M386.7,327a2.22,2.22,0,0,1-2.42-1.81A2,2,0,0,1,386.7,327Z" transform="translate(-115.03 -250.23)"/><path class="cls-15" d="M990.26,609.55c1.32-.14,2.22.3,2.41,1.74A2.23,2.23,0,0,1,990.26,609.55Z" transform="translate(-115.03 -250.23)"/><path class="cls-10" d="M683,545.78c-1.33-1.23-.49-1.76.7-2.17A1.51,1.51,0,0,1,683,545.78Z" transform="translate(-115.03 -250.23)"/><path class="cls-5" d="M408.19,544.7a2.05,2.05,0,0,1-1.79,2.47A2,2,0,0,1,408.19,544.7Z" transform="translate(-115.03 -250.23)"/><path class="cls-5" d="M403.13,550.43a2.1,2.1,0,0,1-2.39,1.87A2,2,0,0,1,403.13,550.43Z" transform="translate(-115.03 -250.23)"/><path class="cls-15" d="M942,451c-.66.88-1.36,1-2.14.15C940.48,450.14,941.19,450.12,942,451Z" transform="translate(-115.03 -250.23)"/><path class="cls-5" d="M356.38,330.11a2.28,2.28,0,0,1-1.61,2.58A1.86,1.86,0,0,1,356.38,330.11Z" transform="translate(-115.03 -250.23)"/><path class="cls-5" d="M445.22,356.85a1.91,1.91,0,0,1-.36,2.46C443.94,358.34,444.32,357.56,445.22,356.85Z" transform="translate(-115.03 -250.23)"/><path class="cls-5" d="M463.24,327.86a2,2,0,0,1-2.34.82C461.37,327.52,462.07,327,463.24,327.86Z" transform="translate(-115.03 -250.23)"/><path class="cls-14" d="M692,511.36c1.33,1.1.6,1.75-.51,2.32A1.51,1.51,0,0,1,692,511.36Z" transform="translate(-115.03 -250.23)"/><path class="cls-5" d="M486.59,335.91a2.34,2.34,0,0,1-1.69-2.52A1.87,1.87,0,0,1,486.59,335.91Z" transform="translate(-115.03 -250.23)"/><path class="cls-5" d="M453.45,335.52a2.34,2.34,0,0,1-1.69,2.54A1.86,1.86,0,0,1,453.45,335.52Z" transform="translate(-115.03 -250.23)"/><path class="cls-10" d="M736.89,596.51a1.82,1.82,0,0,1,1,2.45C736.72,598.45,735.71,597.9,736.89,596.51Z" transform="translate(-115.03 -250.23)"/><path class="cls-5" d="M352.47,577.9a2.21,2.21,0,0,1,2,2.38A1.9,1.9,0,0,1,352.47,577.9Z" transform="translate(-115.03 -250.23)"/><path class="cls-10" d="M741.08,580.06a2,2,0,0,1-1.23,2.7C739.23,581.39,739.84,580.58,741.08,580.06Z" transform="translate(-115.03 -250.23)"/><path class="cls-5" d="M358.74,327a2.41,2.41,0,0,1-1.91,2.37A1.86,1.86,0,0,1,358.74,327Z" transform="translate(-115.03 -250.23)"/><path class="cls-5" d="M780.21,412.63a2,2,0,0,1,.25,1.9C779.38,413.87,779.36,413.75,780.21,412.63Z" transform="translate(-115.03 -250.23)"/><path class="cls-5" d="M984.47,559.55a1.57,1.57,0,0,1,1.94,1.15A1.48,1.48,0,0,1,984.47,559.55Z" transform="translate(-115.03 -250.23)"/><path class="cls-5" d="M1002.64,582.06a1.73,1.73,0,0,1-2.22.66A1.79,1.79,0,0,1,1002.64,582.06Z" transform="translate(-115.03 -250.23)"/><path class="cls-5" d="M363.18,588.74a.93.93,0,0,1,1.2.94A.91.91,0,0,1,363.18,588.74Z" transform="translate(-115.03 -250.23)"/><path class="cls-5" d="M365.07,590.15a.9.9,0,0,1,1.2.91A.91.91,0,0,1,365.07,590.15Z" transform="translate(-115.03 -250.23)"/><path class="cls-5" d="M366.29,591.07a.94.94,0,0,1,1.29.84C366.82,592.13,366.42,591.81,366.29,591.07Z" transform="translate(-115.03 -250.23)"/><path class="cls-5" d="M368.29,592.33a.89.89,0,0,1,1.25.84A.9.9,0,0,1,368.29,592.33Z" transform="translate(-115.03 -250.23)"/><path class="cls-5" d="M369.57,593.18a.9.9,0,0,1,1.27.83C370.09,594.23,369.7,593.91,369.57,593.18Z" transform="translate(-115.03 -250.23)"/><path class="cls-5" d="M350.17,574.82a1,1,0,0,1,.92,1.25C350.31,576,350,575.58,350.17,574.82Z" transform="translate(-115.03 -250.23)"/><path class="cls-15" d="M808.36,597.53a1,1,0,0,1,1.16.85A1,1,0,0,1,808.36,597.53Z" transform="translate(-115.03 -250.23)"/><path class="cls-7" d="M930.51,598.42c.69,0,1,.42.89,1.08C930.69,599.48,930.37,599.14,930.51,598.42Z" transform="translate(-115.03 -250.23)"/><path class="cls-5" d="M683.41,448.21c.56-.24.73,0,.68.53C683.63,448.86,683.35,448.75,683.41,448.21Z" transform="translate(-115.03 -250.23)"/><path class="cls-7" d="M932.59,600.59c.64-.14,1,.09,1,.78C933,601.55,932.62,601.27,932.59,600.59Z" transform="translate(-115.03 -250.23)"/><path class="cls-15" d="M934.37,602a1,1,0,0,1,1.37.77C935,603,934.55,602.71,934.37,602Z" transform="translate(-115.03 -250.23)"/><path class="cls-15" d="M981.9,601.83a1,1,0,0,1,1.29.94C982.43,602.91,982.06,602.51,981.9,601.83Z" transform="translate(-115.03 -250.23)"/><path class="cls-15" d="M983.87,603.22c.69-.12,1.2,0,1.2.86C984.28,604.33,984,604,983.87,603.22Z" transform="translate(-115.03 -250.23)"/><path class="cls-5" d="M983.07,558.62c.62-.09,1.06.09,1.16.77C983.55,559.59,983.18,559.29,983.07,558.62Z" transform="translate(-115.03 -250.23)"/><path class="cls-5" d="M365.44,477.65a1,1,0,0,1,.77,1.37C365.49,478.82,365.19,478.39,365.44,477.65Z" transform="translate(-115.03 -250.23)"/><path class="cls-15" d="M859.23,451.89a1,1,0,0,1,1.15.9A.86.86,0,0,1,859.23,451.89Z" transform="translate(-115.03 -250.23)"/><path class="cls-15" d="M858.1,451.06a.73.73,0,0,1,1,.7C858.47,451.92,858.13,451.7,858.1,451.06Z" transform="translate(-115.03 -250.23)"/><path class="cls-5" d="M754.35,336.65a.83.83,0,0,1-.91-1A.85.85,0,0,1,754.35,336.65Z" transform="translate(-115.03 -250.23)"/><path class="cls-5" d="M899.77,349.75c-9.5-.67-9.55-.62-14.86,7.17-8.19,12-10,25.26-8.14,39.37,1.17,8.85,3.7,17.38,5.65,26a13.66,13.66,0,0,1-9-8.66c-6.15-16.44-10.31-33.23-6-50.95a50.06,50.06,0,0,1,10.29-19.92c2.69-3.31,8.78-4.07,13.35-1.4A22.5,22.5,0,0,1,899.77,349.75Z" transform="translate(-115.03 -250.23)"/><path class="cls-5" d="M718.94,355.24c-1.72.23-3.07-.8-4.57-1.33-4.25-1.5-4.88-1.37-7.79,2.11a39.22,39.22,0,0,0-7.88,15.65c-4.37,17.3-4,34.26,4,50.6a9.6,9.6,0,0,1,.48,1.52c-2.48.21-3.9-1.55-5.43-3-7.08-6.75-10.22-15.53-12-24.76a71.68,71.68,0,0,1,3.91-41.18,29.41,29.41,0,0,1,6.88-10.17c1.26-1.23,2.66-2,4.35-1.35C707.79,345.93,714.46,348.94,718.94,355.24Z" transform="translate(-115.03 -250.23)"/><path class="cls-1" d="M187.44,397.61c-1.44,7.1-3,13.54-4,20.07-2.35,14.94-6.54,29.42-10.39,44-2.48,9.39-5.93,18.45-9.2,27.57a32.74,32.74,0,0,1-10.31,14.86c-14.78,11.86-33.49.72-36.08-11.43-1.4-6.51-.78-13.21.62-19.79a165.81,165.81,0,0,1,9.16-28.67c4.33-10.48,7-21.5,9.52-32.53,3.42-14.69,8.38-29,12.33-43.5,4.15-15.24,7.82-30.6,11.81-45.88a136.49,136.49,0,0,1,13.5-32.77,30.29,30.29,0,0,1,5.33-6.74c2.38-2.31,5.25-4.29,8.52-4.2,9.76.25,19.26.76,25,11,5.67,10.11,10.36,20.28,12.44,31.85,3.38,18.71,5.74,37.62,10.46,56.08.51,2,.64,4.19,2.68,6.26,1.78-6.29,3.56-12.08,5-17.95,4.27-16.88,8.05-33.88,12.93-50.6C259.25,307,262.52,299,269.2,293c9-8.14,20.75-8.1,29.69,0,5.26,4.77,8.21,10.83,10.3,17.4a295.26,295.26,0,0,1,7.6,30.28c2.79,13.53,5.24,27.12,7.8,40.7,2.79,14.84,7.6,29.18,10.93,43.87,3.8,16.79,7.67,33.6,9.27,50.8A49.83,49.83,0,0,1,343,495.77c-1.88,6-5.48,10.29-12,11.92-13.28,3.35-26.06-3-30.69-16.08a158.9,158.9,0,0,1-7.33-32c-1.17-8.72-2.82-17.34-4.37-26-2.13-11.85-5.34-23.44-8.27-35.09-.5-2-.44-5.25-2.87-5.18s-2.08,3.41-2.49,5.3C272.14,412,268,425,263.65,438a145.94,145.94,0,0,1-8.38,19.24c-4.47,8.93-12.19,13.6-21.49,15.54C223,475,215,469.62,208.86,461.37c-5-6.73-6.86-15-9.55-22.75-4.05-11.73-6.69-23.83-9.36-35.91A8.61,8.61,0,0,0,187.44,397.61Z" transform="translate(-115.03 -250.23)"/><path class="cls-14" d="M559.65,573.77a7.26,7.26,0,0,1-8.35-2.19,25.83,25.83,0,0,1-5.5-18.49,56.55,56.55,0,0,1,6.94-23.44,33.19,33.19,0,0,1,3.2-4.95c3.43-4.25,7.2-5.83,11.57-4.62,3.63,1,6.48,5.5,6.71,10.56-2.49-.13-3.84,1.5-5.22,3.24-6.6,8.29-9.68,17.93-10.71,28.28C557.9,566.05,557.67,570.08,559.65,573.77Z" transform="translate(-115.03 -250.23)"/><path class="cls-5" d="M999.12,538.29c-2.75-.59-4.79-2.4-6.65-4.28-6-6-4-14.78,4-17.74,7.25-2.69,14.21-.27,17.46,6.06a2.18,2.18,0,0,1,.17,2c-1.55.31-3.11.56-4.65.93C1002.12,527.1,999.3,530.65,999.12,538.29Z" transform="translate(-115.03 -250.23)"/><path class="cls-14" d="M649.83,525.53c-.18,5.67-3.35,10.09-6.61,14.29-2.5,3.23-5.73,5.9-8.64,8.81-1.22,1.21-2.67,2.08-4.31,1.09s-1.08-2.59-.74-3.91c1.35-5.14,1.4-10.48,3.55-15.56a22.86,22.86,0,0,1,11.13-11.68,2.33,2.33,0,0,1,2.89.33A6.67,6.67,0,0,1,649.83,525.53Z" transform="translate(-115.03 -250.23)"/><path class="cls-15" d="M833.14,536.06c-5.79,3.87-8,9.92-9.59,16.21a43.49,43.49,0,0,0,1.25,25.34c.42,1.17.62,2.41.92,3.61-4.56-.26-7.1-3.43-8.83-7-7.64-15.65-7.94-31,2.3-45.84a16.53,16.53,0,0,1,5.1-4.71c3.56-2.16,5.57-1.66,6.86,2.39A89.08,89.08,0,0,1,833.14,536.06Z" transform="translate(-115.03 -250.23)"/></svg>